<?xml version="1.0" standalone="no"?>
<!DOCTYPE svg PUBLIC "-//W3C//DTD SVG 20010904//EN"
 "http://www.w3.org/TR/2001/REC-SVG-20010904/DTD/svg10.dtd">
<svg version="1.0" xmlns="http://www.w3.org/2000/svg"
 width="159.000000pt" height="159.000000pt" viewBox="0 0 159.000000 159.000000"
 preserveAspectRatio="xMidYMid meet">
<metadata>
Created by potrace 1.11, written by Peter Selinger 2001-2013
</metadata>
<g transform="translate(0.000000,159.000000) scale(0.100000,-0.100000)"
fill="#000000" stroke="none">
<path d="M790 1531 c0 -11 -5 -23 -11 -26 -5 -4 -8 -12 -6 -18 2 -7 -2 -18
-10 -25 -7 -8 -11 -18 -8 -23 4 -5 1 -9 -6 -9 -7 0 -9 -3 -6 -7 4 -3 -3 -13
-14 -21 -17 -12 -18 -16 -8 -23 11 -7 10 -9 -4 -9 -10 0 -15 -4 -12 -10 3 -5
1 -10 -4 -10 -6 0 -11 -7 -11 -16 0 -9 -5 -12 -12 -8 -7 5 -9 0 -6 -14 4 -15
2 -19 -8 -15 -8 3 -14 -1 -14 -10 0 -9 -10 -23 -22 -33 -20 -14 -20 -16 -3
-10 20 7 20 7 0 -12 -11 -11 -23 -18 -27 -15 -4 2 -5 -6 -3 -17 2 -11 0 -18
-6 -15 -5 4 -9 -1 -9 -9 0 -10 -6 -13 -15 -10 -11 4 -13 2 -10 -9 4 -8 -1 -17
-9 -20 -9 -4 -16 -14 -16 -22 0 -9 -4 -13 -10 -10 -6 4 -7 -1 -3 -11 5 -13 3
-15 -7 -9 -10 6 -12 4 -7 -8 5 -13 1 -17 -15 -17 -16 0 -18 -3 -9 -14 9 -11 9
-16 0 -22 -8 -5 -10 -3 -5 7 4 8 1 5 -8 -6 -8 -11 -20 -26 -26 -32 -8 -10 -7
-13 2 -13 7 -1 3 -6 -10 -13 -18 -10 -20 -15 -10 -25 11 -11 10 -12 -3 -7 -10
4 -20 1 -25 -6 -5 -8 -3 -10 7 -5 8 5 8 2 -2 -6 -9 -7 -14 -19 -11 -27 3 -8 0
-11 -7 -7 -7 5 -9 1 -5 -8 3 -9 1 -16 -6 -16 -6 0 -8 -4 -5 -10 3 -6 1 -10 -5
-10 -6 0 -8 -4 -5 -10 3 -5 1 -10 -5 -10 -7 0 -9 -8 -5 -20 5 -16 3 -19 -11
-13 -12 5 -15 3 -9 -6 4 -8 2 -17 -6 -22 -9 -6 -10 -9 -2 -9 9 0 8 -7 -2 -26
-7 -15 -11 -33 -8 -42 4 -10 2 -13 -6 -8 -9 6 -10 1 -5 -19 5 -19 3 -25 -7
-23 -11 2 -15 -15 -17 -75 -2 -42 1 -77 5 -76 4 1 15 1 23 0 13 -1 13 -2 0
-11 -8 -5 -10 -10 -3 -10 13 0 12 -18 -1 -39 -6 -9 -5 -12 1 -8 13 8 26 -20
16 -35 -3 -6 -1 -8 4 -5 6 4 14 0 17 -9 3 -8 2 -12 -4 -9 -6 3 -7 -1 -4 -9 3
-9 10 -13 15 -10 5 3 9 -7 9 -21 0 -14 4 -24 9 -21 5 3 12 -1 15 -10 4 -10 2
-13 -7 -8 -6 4 -2 -3 10 -14 12 -12 24 -31 28 -42 6 -18 9 -19 22 -8 15 12 15
10 3 -12 -13 -24 -12 -24 5 -10 13 10 16 11 11 2 -9 -15 27 -55 40 -44 4 4 4
-2 0 -12 -5 -16 -4 -17 9 -6 8 7 16 10 16 6 1 -3 2 -10 3 -15 2 -14 52 -51 60
-44 3 3 15 -2 26 -12 15 -14 20 -15 20 -4 1 10 4 8 11 -4 8 -14 14 -16 25 -6
11 9 14 9 14 -1 0 -8 11 -11 30 -8 17 3 34 0 37 -5 4 -6 1 -7 -8 -2 -8 5 -11
4 -6 -1 10 -11 78 -13 71 -2 -3 4 0 8 5 8 6 0 11 -4 11 -8 0 -11 57 -8 67 3 5
4 2 5 -6 0 -9 -5 -12 -4 -8 2 4 6 17 8 31 6 13 -3 27 0 31 7 5 8 11 8 23 -2
12 -10 14 -10 8 0 -4 7 -1 12 9 12 9 0 14 4 11 9 -3 4 7 8 22 7 15 0 27 4 27
11 0 6 4 15 9 20 5 5 6 3 2 -4 -4 -7 -2 -13 3 -13 6 0 11 5 11 11 0 5 4 8 9 5
13 -8 34 21 26 35 -6 8 -2 8 13 0 18 -10 20 -9 17 10 -4 18 -2 19 12 7 12 -9
15 -9 9 0 -4 6 -3 12 3 12 6 0 8 7 4 15 -3 10 0 15 8 13 8 -2 13 4 13 14 -1
14 2 15 17 8 15 -8 17 -7 13 5 -4 8 -1 15 5 15 6 0 8 7 4 17 -4 9 -2 14 3 10
6 -3 15 3 22 13 10 17 9 18 -6 13 -11 -3 -9 0 6 11 12 10 20 21 17 26 -3 4 0
10 6 12 6 2 13 17 15 33 1 16 8 31 13 33 6 2 11 21 11 42 0 46 9 72 21 64 5
-3 9 2 9 10 0 9 -6 16 -14 16 -11 0 -15 14 -15 53 0 63 -3 80 -16 89 -6 5 -5
8 3 8 8 0 6 8 -7 21 -15 16 -18 27 -11 39 7 13 5 20 -6 24 -11 4 -13 13 -9 27
5 14 3 19 -3 15 -11 -7 -28 30 -23 53 1 7 -2 10 -8 7 -5 -4 -12 -2 -16 4 -3 5
0 10 7 10 8 1 4 9 -10 19 -15 13 -18 21 -10 24 8 3 6 6 -5 6 -10 1 -15 6 -12
11 3 6 1 10 -5 10 -6 0 -8 5 -5 10 3 6 1 10 -5 10 -6 0 -8 5 -4 12 5 7 2 9 -8
5 -12 -4 -14 -1 -10 15 4 16 2 19 -8 13 -10 -6 -12 -4 -7 9 4 9 3 14 -2 11
-16 -9 -25 16 -10 27 11 8 10 9 -3 4 -11 -3 -19 2 -23 15 -4 10 -11 16 -17 13
-6 -4 -8 1 -3 15 5 17 3 20 -11 14 -13 -5 -16 -3 -11 10 3 9 2 17 -4 17 -5 0
-14 12 -19 26 -6 14 -15 22 -21 18 -8 -4 -9 1 -4 16 5 17 4 21 -6 15 -9 -6
-11 -3 -6 9 4 10 3 15 -3 11 -6 -3 -13 1 -16 9 -3 9 -11 13 -18 9 -7 -4 -7 -1
1 7 10 11 9 17 -5 29 -9 9 -23 28 -31 44 -8 15 -18 27 -23 27 -4 0 -8 12 -8
26 0 16 -4 23 -11 18 -7 -4 -9 1 -7 12 2 11 -2 24 -9 29 -7 6 -14 21 -17 35
-2 14 -9 24 -16 22 -6 -1 -9 2 -6 7 4 5 2 12 -4 16 -5 3 -10 -3 -10 -14z m398
-969 c1 -9 2 -25 3 -35 0 -11 5 -15 12 -10 7 4 5 -2 -3 -12 -9 -11 -10 -16 -3
-11 10 5 12 -3 11 -33 -1 -23 -5 -38 -11 -34 -6 3 -6 -1 0 -12 7 -12 6 -25 -3
-43 -7 -13 -10 -31 -7 -40 4 -10 2 -13 -5 -8 -7 4 -13 2 -13 -3 -1 -6 -3 -15
-4 -21 -1 -5 -3 -15 -4 -21 0 -5 -5 -8 -10 -5 -5 3 -11 -1 -14 -8 -3 -8 -1
-17 6 -20 7 -2 2 -5 -9 -5 -13 -1 -24 -9 -27 -21 -3 -12 -14 -20 -27 -20 -11
0 -18 -5 -15 -10 3 -5 -3 -10 -14 -10 -10 0 -21 -6 -23 -12 -4 -10 -8 -9 -19
2 -18 19 -18 38 1 50 13 9 13 11 0 21 -12 8 -10 9 9 4 16 -5 21 -4 17 4 -4 6
-2 11 3 11 6 0 11 5 11 11 0 5 -6 7 -12 3 -8 -4 -10 -3 -5 2 5 5 14 9 20 9 7
1 11 6 10 13 -2 7 0 11 5 11 19 -3 26 2 13 10 -11 7 -9 11 8 21 17 9 20 14 11
25 -9 11 -7 18 8 31 11 9 18 23 15 30 -3 8 0 14 7 14 10 0 10 3 0 15 -10 12
-10 15 0 15 10 0 10 3 1 14 -10 11 -8 17 6 25 13 7 14 10 4 11 -11 0 -10 4 4
13 13 10 15 16 6 21 -9 6 -9 11 -1 21 14 17 36 10 38 -13z m-621 -467 c0 -8
-4 -12 -9 -9 -4 3 -8 9 -8 15 0 5 4 9 8 9 5 0 9 -7 9 -15z m207 -53 c3 -5 -1
-9 -9 -9 -8 0 -12 4 -9 9 3 4 7 8 9 8 2 0 6 -4 9 -8z m76 2 c0 -8 -19 -13 -24
-6 -3 5 1 9 9 9 8 0 15 -2 15 -3z"/>
</g>
</svg>
